<?xml version="1.0" encoding="utf-8"?>
<svg version="1.1" xmlns:xlink="http://www.w3.org/1999/xlink" width="30px" height="30px" xmlns="http://www.w3.org/2000/svg">
  <defs>
    <path d="M 0 0  L 1165 0  L 1165 1024  L 0 1024  Z " fill-rule="evenodd" fill="black" id="path494" />
    <clipPath id="clip495">
      <use xlink:href="#path494" />
    </clipPath>
    <filter x="-50.00%" y="-50.00%" width="200.00%" height="200.00%" filterUnits="objectBoundingBox" id="filter496">
      <feColorMatrix type="matrix" values="0.7 0 0 0 0.75  0 0.7 0 0 0.75  0 0 0.7 0 0.75  0 0 0 1 0  " in="SourceGraphic" />
    </filter>
  </defs>
  <g transform="matrix(1 0 0 1 -35 -150 )">
    <g transform="matrix(0.0257510729613734 0 0 0.0257510729613734 35 151.815450643777 )" clip-path="url(#clip495)" filter="url(#filter496)">
      <path d="M256.364 655.477a36.415 36.415 0 0 1-37.872-36.416V254.908a36.415 36.415 0 0 1 72.83 0V619.06a36.415 36.415 0 0 1-36.414 36.416z m218.492 0a36.415 36.415 0 0 1-37.872-36.416V473.4a36.415 36.415 0 1 1 72.831 0V619.06a36.415 36.415 0 0 1-36.415 36.416z m218.493 0a36.415 36.415 0 0 1-37.872-36.416V254.908a36.415 36.415 0 0 1 72.83 0V619.06a36.415 36.415 0 0 1-36.415 36.416z m218.492 0a36.415 36.415 0 0 1-36.416-36.416V473.4a36.415 36.415 0 1 1 72.831 0V619.06a36.415 36.415 0 0 1-36.415 36.416zM849.206 1024H329.923a36.415 36.415 0 0 1 0-72.83h516.37a36.415 36.415 0 1 1 0 72.83z m0 0" p-id="2875"></path>
      <path d="M1056.046 801.138h-946.8A109.246 109.246 0 0 1 0 691.892V109.246A109.246 109.246 0 0 1 109.246 0h946.8a109.246 109.246 0 0 1 109.246 109.246v582.646a109.246 109.246 0 0 1-109.246 109.246z m-946.8-728.307a36.415 36.415 0 0 0-36.415 36.415v582.646a36.415 36.415 0 0 0 36.415 36.415h946.8a36.415 36.415 0 0 0 36.415-36.415V109.246a36.415 36.415 0 0 0-36.415-36.415z m0 0" p-id="2876"></path>
      <path d="M256.364 655.477a36.415 36.415 0 0 1-37.872-36.416V254.908a36.415 36.415 0 0 1 72.83 0V619.06a36.415 36.415 0 0 1-36.414 36.416z m218.492 0a36.415 36.415 0 0 1-37.872-36.416V473.4a36.415 36.415 0 1 1 72.831 0V619.06a36.415 36.415 0 0 1-36.415 36.416z m218.493 0a36.415 36.415 0 0 1-37.872-36.416V254.908a36.415 36.415 0 0 1 72.83 0V619.06a36.415 36.415 0 0 1-36.415 36.416z m218.492 0a36.415 36.415 0 0 1-36.416-36.416V473.4a36.415 36.415 0 1 1 72.831 0V619.06a36.415 36.415 0 0 1-36.415 36.416zM849.206 1024H329.923a36.415 36.415 0 0 1 0-72.83h516.37a36.415 36.415 0 1 1 0 72.83z m0 0" p-id="2877"></path>
      <path d="M1056.046 801.138h-946.8A109.246 109.246 0 0 1 0 691.892V109.246A109.246 109.246 0 0 1 109.246 0h946.8a109.246 109.246 0 0 1 109.246 109.246v582.646a109.246 109.246 0 0 1-109.246 109.246z m-946.8-728.307a36.415 36.415 0 0 0-36.415 36.415v582.646a36.415 36.415 0 0 0 36.415 36.415h946.8a36.415 36.415 0 0 0 36.415-36.415V109.246a36.415 36.415 0 0 0-36.415-36.415z m0 0" p-id="2878"></path>
    </g>
  </g>
</svg>