<svg t="1590594393071" class="icon" viewBox="0 0 1024 1024" version="1.1" xmlns="http://www.w3.org/2000/svg" p-id="7061" width="200" height="200"><path d="M512 512m-512 0a512 512 0 1 0 1024 0 512 512 0 1 0-1024 0Z" fill="#FFFFFF" p-id="7062"></path><path d="M431.494095 727.868952l63.634286-168.691809c2.438095-4.87619 1.219048-10.971429-2.438095-14.652953-3.705905-3.657143-7.363048-7.338667-12.263619-7.338666h-74.630096l105.228191-260.388572h117.467428l-102.790095 171.154286c-2.438095 4.87619-3.657143 10.99581 0 15.896381 2.438095 4.87619 8.557714 8.533333 14.677334 8.533333h102.790095l-211.675429 255.512381z m260.632381-278.698666c-3.657143-6.095238-8.582095-9.776762-15.920762-9.776762H567.344762l104.009143-171.154286c2.438095-4.87619 3.657143-10.971429 0-15.872-2.438095-4.87619-8.582095-8.557714-14.701715-8.557714h-156.623238c-6.095238 0-12.239238 3.657143-14.677333 9.776762l-117.467429 293.376c-2.438095 4.87619-1.219048 10.99581 1.219048 14.677333 2.438095 4.87619 8.557714 7.314286 13.458286 7.314286h74.654476l-90.550857 238.372571c-2.438095 7.338667 0 15.896381 7.314286 19.553524 7.363048 3.657143 15.920762 2.438095 20.821333-3.657143l294.887619-358.15619c3.681524-3.657143 4.900571-10.99581 2.438095-15.896381z" fill="#F5A623" p-id="7063"></path><path d="M387.096381 828.952381c-3.535238 0-7.070476-1.194667-10.605714-2.389333-9.435429-4.778667-12.970667-16.725333-9.435429-26.282667l83.724191-225.694476h-63.683048a20.72381 20.72381 0 0 1-17.676191-9.532953 24.33219 24.33219 0 0 1-2.364952-20.309333l113.200762-286.598095c3.535238-8.362667 11.800381-14.336 20.041143-14.336h152.137143c8.240762 0 15.311238 4.778667 18.846476 10.727619a25.6 25.6 0 0 1 0 22.698667l-94.329905 157.647238h94.354286c8.240762 0 16.505905 4.778667 20.041143 11.946666a22.381714 22.381714 0 0 1-2.364953 22.674286l-284.184381 351.085714a21.113905 21.113905 0 0 1-17.700571 8.362667z m0-266.288762h80.213333L377.660952 803.84c-1.170286 4.778667 0 9.557333 4.729905 11.946667 4.705524 2.389333 9.435429 1.219048 12.970667-2.389334l284.184381-349.866666c2.364952-2.413714 2.364952-7.192381 1.170285-10.776381-1.170286-3.584-4.705524-5.948952-9.435428-5.948953h-115.565714l104.96-175.542857c2.364952-3.584 2.364952-7.168 0-9.557333-2.364952-2.389333-4.705524-4.778667-8.240762-4.778667h-150.942476c-3.535238 0-7.070476 2.389333-9.435429 5.973334l-113.200762 286.598095c-1.194667 3.584-1.194667 5.973333 1.170286 9.557333 1.194667 1.194667 4.729905 3.584 7.070476 3.584z m53.077333 163.596191l-9.435428-5.973334 61.318095-164.815238c1.170286-3.559619 1.170286-5.948952-1.170286-9.532952-2.364952-2.389333-4.729905-4.778667-8.265143-4.778667h-80.188952l106.130286-266.313143h127.341714l-104.935619 175.542857c-2.364952 3.584-2.364952 7.168 0 9.557334 1.170286 3.584 4.705524 4.778667 8.265143 4.778666h112.006095l-211.065905 261.534477z m42.447238-195.852191c7.070476 0 14.140952 3.584 17.676191 9.557333a24.33219 24.33219 0 0 1 2.364952 20.309334l-48.347428 130.145524 172.178285-211.358477h-87.283809a23.942095 23.942095 0 0 1-18.846476-10.727619 25.6 25.6 0 0 1 0-22.698666l94.329904-157.647238h-97.865142l-96.694858 242.419809h62.488381z" fill="#F5A623" p-id="7064"></path></svg>