<svg t="1590594478895" class="icon" viewBox="0 0 1042 1024" version="1.1" xmlns="http://www.w3.org/2000/svg" p-id="8234" width="200" height="200"><path d="M523.757037 535.703704h73.576296a9.671111 9.671111 0 0 1 9.481482 9.481481V549.925926a9.481481 9.481481 0 0 1-9.481482 9.481481h-73.576296v82.29926a11.946667 11.946667 0 0 1-23.703704 0V559.407407H426.666667a9.481481 9.481481 0 0 1-9.481482-9.481481v-4.740741a9.481481 9.481481 0 0 1 9.481482-9.481481h73.386666v-46.838519a7.964444 7.964444 0 0 1-4.171852 0H426.666667a9.481481 9.481481 0 0 1-9.481482-9.481481v-4.740741a9.481481 9.481481 0 0 1 9.481482-9.481482h51.389629l-47.597037-72.059259a9.671111 9.671111 0 0 1 2.844445-13.274074l3.602963-1.896296a9.481481 9.481481 0 0 1 12.136296 3.223704l55.561481 84.385185h13.274075l55.371851-84.385185a9.860741 9.860741 0 0 1 12.325926-3.223704l3.413334 1.896296a9.671111 9.671111 0 0 1 2.844444 13.274074l-47.597037 72.059259h51.38963a9.671111 9.671111 0 0 1 9.481481 9.481482v4.740741a9.481481 9.481481 0 0 1-9.481481 9.481481h-67.508148a8.533333 8.533333 0 0 1-4.361482 0z" fill="#313333" p-id="8235"></path><path d="M512.568889 656.687407a14.222222 14.222222 0 0 1-14.222222-14.222222v-80.592592H426.666667a11.946667 11.946667 0 0 1-11.946667-11.946667v-4.740741a11.946667 11.946667 0 0 1 11.946667-11.757037h71.111111V491.140741H426.666667a11.946667 11.946667 0 0 1-11.946667-11.946667v-4.740741a11.946667 11.946667 0 0 1 11.946667-11.757037h46.838518l-44.942222-68.456296a11.946667 11.946667 0 0 1 3.413333-16.497778h1.137778l3.413333-1.896296a11.946667 11.946667 0 0 1 15.36 4.171852l54.802963 83.247407h10.61926l54.802963-83.247407a11.946667 11.946667 0 0 1 15.36-4.171852l3.413333 1.706667h1.137778a11.377778 11.377778 0 0 1 5.12 7.585185 12.325926 12.325926 0 0 1-1.706667 8.912592l-44.942222 68.266667h47.028148a11.757037 11.757037 0 0 1 11.757037 11.757037v4.740741a11.946667 11.946667 0 0 1-11.757037 11.946666H526.222222v42.287408h71.111111a11.757037 11.757037 0 0 1 11.757037 11.757037v4.740741a11.946667 11.946667 0 0 1-11.757037 11.946666h-71.111111v80.213334a14.411852 14.411852 0 0 1-13.653333 14.98074z m-85.333333-118.518518a7.205926 7.205926 0 0 0-7.205926 7.016296V549.925926a7.205926 7.205926 0 0 0 7.205926 7.205926h75.851851v84.574815a9.481481 9.481481 0 0 0 9.481482 9.481481 9.671111 9.671111 0 0 0 9.481481-9.481481v-85.333334h75.851852a7.016296 7.016296 0 0 0 7.016297-7.205926v-4.74074a7.016296 7.016296 0 0 0-7.016297-7.016297h-75.851852v-51.2h75.851852a7.016296 7.016296 0 0 0 7.016297-7.205926v-4.74074a7.016296 7.016296 0 0 0-7.016297-7.016297h-56.32l49.872593-75.851851a6.637037 6.637037 0 0 0 0.948148-5.30963 6.447407 6.447407 0 0 0-3.034074-4.551111l-3.413333-1.896296a7.205926 7.205926 0 0 0-9.102223 2.465185l-56.888889 85.522963h-15.928888l-56.888889-85.522963a7.205926 7.205926 0 0 0-9.102223-2.465185l-3.602963 1.896296a7.016296 7.016296 0 0 0-3.034074 4.551111 6.826667 6.826667 0 0 0 1.137778 5.30963l49.872593 75.851851H426.666667a7.205926 7.205926 0 0 0-7.205926 7.016297v4.74074a7.205926 7.205926 0 0 0 7.205926 7.205926h69.973333a8.912593 8.912593 0 0 0 3.223704 0h2.654815v51.958519z" fill="#333333" p-id="8236"></path><path d="M278.186667 731.401481l99.934814 16.497778-35.65037 61.62963-64.284444-78.127408z" fill="#323333" p-id="8237"></path><path d="M343.798519 826.216296l-88.936297-108.657777 138.24 22.945185z m-42.287408-81.351111l40.391111 48.545185 21.807408-37.925926z" fill="#333333" p-id="8238"></path><path d="M745.813333 292.598519l-99.934814-16.497778 35.65037-61.62963 64.284444 78.127408z" fill="#313333" p-id="8239"></path><path d="M769.137778 306.251852l-138.24-22.945185 49.114074-85.333334z m-108.278519-37.925926l61.44 10.05037-39.063703-47.217777z" fill="#333333" p-id="8240"></path><path d="M512.568889 834.74963a322.37037 322.37037 0 0 1-170.666667-48.165926 14.411852 14.411852 0 0 1-4.551111-18.962963 14.222222 14.222222 0 0 1 18.962963-4.551111 294.115556 294.115556 0 0 0 427.235556-363.70963 14.222222 14.222222 0 0 1 7.585185-18.962963 14.032593 14.032593 0 0 1 18.962963 7.774815 322.37037 322.37037 0 0 1-297.528889 446.577778z m-284.444445-189.62963a14.222222 14.222222 0 0 1-13.084444-8.722963 322.37037 322.37037 0 0 1 466.488889-399.17037 14.032593 14.032593 0 0 1 4.740741 18.962963 14.411852 14.411852 0 0 1-18.962963 4.74074A294.115556 294.115556 0 0 0 240.82963 625.777778a14.222222 14.222222 0 0 1-13.084445 18.962963z" fill="#333333" p-id="8241"></path></svg>