<?xml version="1.0" encoding="utf-8"?>
<svg version="1.1" xmlns:xlink="http://www.w3.org/1999/xlink" width="16px" height="16px" viewBox="920 634  16 16" xmlns="http://www.w3.org/2000/svg">
  <path d="M 928 634  C 932.48 634  936 637.52  936 642  C 936 646.48  932.48 650  928 650  C 923.52 650  920 646.48  920 642  C 920 637.52  923.52 634  928 634  Z " fill-rule="nonzero" fill="#f0f0f0" stroke="none" />
  <path d="M 928 634.5  C 932.2 634.5  935.5 637.8  935.5 642  C 935.5 646.2  932.2 649.5  928 649.5  C 923.8 649.5  920.5 646.2  920.5 642  C 920.5 637.8  923.8 634.5  928 634.5  Z " stroke-width="1" stroke="#02a7f0" fill="none" />
  <path d="M 928 646  C 925.76 646  924 644.24  924 642  C 924 639.76  925.76 638  928 638  C 930.24 638  932 639.76  932 642  C 932 644.24  930.24 646  928 646  " fill-rule="nonzero" fill="#02a7f0" stroke="none" />
</svg>