<?xml version="1.0" encoding="utf-8"?>
<svg version="1.1" xmlns:xlink="http://www.w3.org/1999/xlink" width="16px" height="16px" viewBox="920 607  16 16" xmlns="http://www.w3.org/2000/svg">
  <path d="M 928 607  C 932.48 607  936 610.52  936 615  C 936 619.48  932.48 623  928 623  C 923.52 623  920 619.48  920 615  C 920 610.52  923.52 607  928 607  Z " fill-rule="nonzero" fill="#f0f0f0" stroke="none" />
  <path d="M 928 607.5  C 932.2 607.5  935.5 610.8  935.5 615  C 935.5 619.2  932.2 622.5  928 622.5  C 923.8 622.5  920.5 619.2  920.5 615  C 920.5 610.8  923.8 607.5  928 607.5  Z " stroke-width="1" stroke="#02a7f0" fill="none" />
  <path d="M 928 619  C 925.76 619  924 617.24  924 615  C 924 612.76  925.76 611  928 611  C 930.24 611  932 612.76  932 615  C 932 617.24  930.24 619  928 619  " fill-rule="nonzero" fill="#02a7f0" stroke="none" />
</svg>