<svg t="1590593165371" class="icon" viewBox="0 0 1024 1024" version="1.1" xmlns="http://www.w3.org/2000/svg" p-id="21533" width="200" height="200"><path d="M678.1990625 360.1690625C633.805625 315.775625 574.7815625 291.3275 512 291.3275c-62.7825 0-121.805625 24.448125-166.1990625 68.8415625C301.4075 404.5625 276.959375 463.585625 276.959375 526.368125s24.448125 121.805625 68.8415625 166.1990625c44.394375 44.3934375 103.4184375 68.8415625 166.1990625 68.8415625 62.7825 0 121.8065625-24.448125 166.1990625-68.8415625 44.3925-44.394375 68.8415625-103.4175 68.8415625-166.1990625S722.5925 404.5625 678.1990625 360.1690625z" fill="#E46C0A" p-id="21534"></path><path d="M512 243.3603125c13.2459375 0 23.9840625-10.738125 23.9840625-23.9840625L535.9840625 104.2540625c0-13.2459375-10.7371875-23.9840625-23.9840625-23.9840625s-23.9840625 10.738125-23.9840625 23.9840625l0 115.1221875C488.0159375 232.6221875 498.753125 243.3603125 512 243.3603125z" fill="#E46C0A" p-id="21535"></path><path d="M512 809.375c-13.246875 0-23.9840625 10.7371875-23.9840625 23.9840625L488.0159375 948.48125c0 13.246875 10.7371875 23.9840625 23.9840625 23.9840625 13.2459375 0 23.9840625-10.7371875 23.9840625-23.9840625L535.9840625 833.3590625C535.9840625 820.1121875 525.246875 809.375 512 809.375z" fill="#E46C0A" p-id="21536"></path><path d="M934.1140625 502.3840625L818.991875 502.3840625c-13.246875 0-23.9840625 10.738125-23.9840625 23.9840625s10.7371875 23.9840625 23.9840625 23.9840625l115.1221875 0c13.2459375 0 23.9840625-10.738125 23.9840625-23.9840625S947.3609375 502.3840625 934.1140625 502.3840625z" fill="#E46C0A" p-id="21537"></path><path d="M228.9921875 526.368125c0-13.2459375-10.738125-23.9840625-23.9840625-23.9840625L89.8859375 502.3840625c-13.2459375 0-23.9840625 10.738125-23.9840625 23.9840625s10.738125 23.9840625 23.9840625 23.9840625l115.1221875 0C218.2540625 550.3521875 228.9921875 539.6140625 228.9921875 526.368125z" fill="#E46C0A" p-id="21538"></path><path d="M729.9134375 332.43875c6.13875 0 12.275625-2.341875 16.9584375-7.0246875l81.4040625-81.4040625c9.365625-9.3665625 9.365625-24.55125 0-33.9178125-9.3665625-9.3665625-24.55125-9.3665625-33.91875 0l-81.4040625 81.4040625c-9.365625 9.3665625-9.365625 24.55125 0 33.9178125C717.6378125 330.096875 723.775625 332.43875 729.9134375 332.43875z" fill="#E46C0A" p-id="21539"></path><path d="M278.8025 725.646875l-81.4040625 81.405c-9.3665625 9.3665625-9.3665625 24.55125 0 33.91875 4.68375 4.68375 10.8215625 7.02375 16.959375 7.02375 6.1378125 0 12.275625-2.34 16.9584375-7.02375l81.4040625-81.405c9.3665625-9.3665625 9.3665625-24.55125 0-33.91875C303.35375 716.279375 288.1690625 716.279375 278.8025 725.646875z" fill="#E46C0A" p-id="21540"></path><path d="M746.871875 725.646875c-9.365625-9.3646875-24.55125-9.3646875-33.91875 0-9.365625 9.365625-9.365625 24.55125 0 33.91875l81.4040625 81.405c4.68375 4.68375 10.8215625 7.02375 16.959375 7.02375s12.2775-2.341875 16.959375-7.02375c9.365625-9.365625 9.365625-24.55125 0-33.91875L746.871875 725.646875z" fill="#E46C0A" p-id="21541"></path><path d="M278.8015625 325.4140625c4.6846875 4.68375 10.820625 7.0246875 16.959375 7.0246875 6.1378125 0 12.2765625-2.3428125 16.9575-7.0246875 9.3665625-9.3665625 9.3665625-24.55125 0-33.9178125l-81.4040625-81.4040625c-9.3665625-9.365625-24.55125-9.3665625-33.9178125 0-9.3665625 9.3665625-9.3665625 24.55125 0 33.9178125L278.8015625 325.4140625z" fill="#E46C0A" p-id="21542"></path></svg>