<?xml version="1.0" encoding="utf-8"?>
<svg version="1.1" xmlns:xlink="http://www.w3.org/1999/xlink" width="30px" height="30px" xmlns="http://www.w3.org/2000/svg">
  <defs>
    <path d="M 0 0  L 1024 0  L 1024 1024  L 0 1024  Z " fill-rule="evenodd" fill="black" id="path470" />
    <clipPath id="clip471">
      <use xlink:href="#path470" />
    </clipPath>
    <filter x="-50.00%" y="-50.00%" width="200.00%" height="200.00%" filterUnits="objectBoundingBox" id="filter472">
      <feColorMatrix type="matrix" values="0.7 0 0 0 0.75  0 0.7 0 0 0.75  0 0 0.7 0 0.75  0 0 0 1 0  " in="SourceGraphic" />
    </filter>
  </defs>
  <g transform="matrix(1 0 0 1 -35 -200 )">
    <g transform="matrix(0.029296875 0 0 0.029296875 35 200 )" clip-path="url(#clip471)" filter="url(#filter472)">
      <path d="M512 68.266667A443.733333 443.733333 0 1 1 68.266667 512 443.733333 443.733333 0 0 1 512 68.266667m0-68.266667a512 512 0 1 0 512 512A512 512 0 0 0 512 0z" fill="#3C3C3C" p-id="10853"></path>
      <path d="M516.778667 250.197333a170.666667 170.666667 0 0 0-68.266667 12.970667 142.336 142.336 0 0 0-50.858667 36.181333 162.474667 162.474667 0 0 0-31.744 54.613334 191.488 191.488 0 0 0-10.24 68.266666h60.757334a179.541333 179.541333 0 0 1 6.485333-46.762666 102.4 102.4 0 0 1 18.090667-37.205334 91.477333 91.477333 0 0 1 31.061333-24.917333 98.304 98.304 0 0 1 44.373333-9.216 83.626667 83.626667 0 0 1 61.098667 22.186667 92.501333 92.501333 0 0 1 25.258667 61.44 102.4 102.4 0 0 1-6.485334 45.056 130.048 130.048 0 0 1-21.162666 34.133333 339.285333 339.285333 0 0 1-28.672 29.354667 321.877333 321.877333 0 0 0-29.354667 30.378666 162.133333 162.133333 0 0 0-23.552 37.546667 138.581333 138.581333 0 0 0-10.922667 51.2v34.133333h60.757334v-28.330666a96.256 96.256 0 0 1 5.461333-34.133334 113.664 113.664 0 0 1 14.336-27.306666 189.098667 189.098667 0 0 1 20.138667-23.552l22.528-21.845334q11.605333-11.605333 22.528-23.552a163.157333 163.157333 0 0 0 19.797333-26.624 143.36 143.36 0 0 0 13.994667-31.744 136.533333 136.533333 0 0 0 5.461333-39.594666 156.330667 156.330667 0 0 0-11.264-60.757334 125.269333 125.269333 0 0 0-31.061333-44.714666 136.533333 136.533333 0 0 0-47.445334-27.989334 183.978667 183.978667 0 0 0-61.098666-9.557333z m34.133333 443.733334h-77.824v79.530666h79.530667v-79.189333z" fill="#3C3C3C" p-id="10854"></path>
    </g>
  </g>
</svg>