<svg t="1590591098657" class="icon" viewBox="0 0 1024 1024" version="1.1" xmlns="http://www.w3.org/2000/svg" p-id="15870" width="200" height="200"><path d="M512 556.521739c31.165217 0 57.878261-26.713043 57.878261-57.878261V57.878261c0-31.165217-26.713043-57.878261-57.878261-57.878261S454.121739 26.713043 454.121739 57.878261v440.765217c0 31.165217 26.713043 57.878261 57.878261 57.878261z" p-id="15871" fill="#1296db"></path><path d="M819.2 191.443478c-22.26087-22.26087-62.330435-17.808696-84.591304 4.452174s-17.808696 62.330435 4.452174 84.591305c75.686957 66.782609 120.208696 164.730435 120.208695 267.130434 0 195.895652-155.826087 356.173913-351.721739 356.173913s-351.721739-160.278261-351.721739-356.173913c0-106.852174 44.521739-204.8 124.66087-271.582608 31.165217-17.808696 31.165217-53.426087 13.356521-80.139131s-57.878261-26.713043-84.591304-4.452174C106.852174 280.486957 44.521739 409.6 44.521739 552.069565 44.521739 810.295652 253.773913 1024 512 1024S979.478261 810.295652 979.478261 552.069565c0-142.469565-57.878261-271.582609-160.278261-360.626087z" p-id="15872" fill="#1296db"></path></svg>