<svg t="1590593613239" class="icon" viewBox="0 0 1070 1024" version="1.1" xmlns="http://www.w3.org/2000/svg" p-id="22598" width="200" height="200"><path d="M742.78365832 533.40846232H534.10499132c-6.891845 0-13.623415-2.724683-18.431679-7.693223-4.96854-4.96854-7.693223-11.539834-7.693223-18.431679V298.76516932c0-14.424793 11.70011-26.124902 26.124902-26.124902s26.124902 11.70011 26.124902 26.124902v182.553764h182.553765c14.424793 0 26.124902 11.70011 26.124902 26.124902-0.160275 14.424793-11.860385 25.964627-26.124902 25.964627z m0 0" p-id="22599" fill="#1296db"></path><path d="M464.54543632 891.94469632h-4.808264L436.49722832 886.65560632c-208.838942-53.852559-334.655189-266.858663-280.962905-475.697606C209.06633132 202.11905832 421.91216032 76.14253632 630.75110232 129.67454432 839.75031932 183.04627732 966.04739232 395.73183032 912.67566032 604.73104832c-4.327438 12.982313-17.950853 20.515261-31.253718 17.149475-13.302864-3.365785-21.637189-16.508374-19.233057-29.971513C909.14959932 410.63744932 800.16227732 225.67955332 618.89071732 178.87911532 437.61915632 131.91840132 252.66126032 240.90572332 205.86082232 422.17728432 158.90010832 603.44884432 267.88743032 788.40674032 449.15899032 835.36745432l20.19471 4.487713c14.424793 1.282204 25.002974 14.104242 23.72077 28.529035-1.442479 14.424793-14.104242 25.002974-28.529034 23.560494z m0 0" p-id="22600" fill="#1296db"></path><path d="M666.81308332 705.86487232c-7.693223-14.905619-19.874159-27.086555-34.779777-34.779778-16.348098-8.815151-34.619502-13.142589-53.211458-12.501487-13.46314 0-26.766004 2.404132-39.267491 7.372672-11.70011 4.487713-22.118015 11.379559-30.612615 20.51526-8.654876 9.456253-15.065895 20.515261-19.072781 32.696197-4.487713 13.623415-6.73157 27.727657-6.571295 42.152449-0.160275 14.104242 1.923306 28.208483 6.250744 41.671624 3.846611 12.180936 10.25763 23.400219 18.75223 33.016747 8.4946 9.295977 19.072781 16.668649 30.933166 21.156363 26.92628 9.937079 56.577242 9.937079 83.503522 0 11.70011-4.647989 22.118015-11.860385 30.612616-21.156363 8.4946-9.456253 14.905619-20.515261 18.75223-32.696197 4.327438-13.623415 6.411019-27.727657 6.250743-42.152449 0.480826-19.072781-3.52606-37.985287-11.539834-55.295038z m-30.612615 55.295038v-0.160276c0.320551 13.623415-2.243857 27.086555-7.693223 39.427767-5.769917 13.142589-16.508374 23.400219-29.971513 28.529034-13.46314 5.128815-28.208483 4.647989-41.351073-1.282204-6.891845-3.045234-13.142589-7.693223-18.111128-13.623415-5.609642-6.571294-9.776804-14.264517-12.180936-22.598842-2.884959-9.937079-4.327438-20.19471-4.167162-30.612615-0.160275-10.25763 1.282204-20.515261 4.167162-30.292065 2.404132-8.174049 6.411019-15.706996 11.860385-22.27829 4.808264-5.769917 10.898732-10.25763 17.790578-13.142589 7.052121-3.045234 14.585068-4.647989 22.27829-4.487713 10.738457-0.160275 21.156362 2.724683 30.292065 8.334324 9.135702 5.769917 16.027547 14.424793 20.19471 24.361872 4.96854 12.020661 7.212396 24.842698 6.891845 37.664736v-0.160275 0.320551zM571.12862632 1141.33333332v-0.320551 0.320551z" p-id="22601" fill="#1296db"></path><path d="M932.71009432 694.80586432c10.25763 0 18.111129-7.693223 18.111128-18.111129 0-10.25763-7.693223-18.111129-18.111128-18.111128h-67.155424c-14.264517 0-25.804351 11.70011-25.804351 25.804351v193.773048c0 10.25763 8.975427 19.393332 19.393333 19.393332s19.393332-8.975427 19.393332-19.393332V796.90134132h43.91548c10.25763 0 18.111129-7.693223 18.111128-18.111129 0-10.25763-7.693223-18.111129-18.111128-18.111128h-43.91548v-65.87322h54.17311zM799.68145132 658.58360732h-68.437627c-14.264517 0-25.804351 11.70011-25.804352 25.804351v193.773048c0 10.25763 8.975427 19.393332 19.393333 19.393332 10.25763 0 19.393332-8.975427 19.393332-19.393332V796.90134132H788.14161732c10.417906 0 18.111129-7.693223 18.111128-18.111129 0-10.25763-7.693223-18.111129-18.111128-18.111128h-43.91548v-65.87322h55.615589c10.25763 0 18.111129-7.693223 18.111129-18.111129-0.160275-10.417906-7.853498-18.111129-18.271404-18.111128z" p-id="22602" fill="#1296db"></path></svg>