<?xml version="1.0" encoding="utf-8"?>
<svg version="1.1" xmlns:xlink="http://www.w3.org/1999/xlink" width="30px" height="30px" xmlns="http://www.w3.org/2000/svg">
  <defs>
    <path d="M 0 0  L 1024 0  L 1024 1024  L 0 1024  Z " fill-rule="evenodd" fill="black" id="path443" />
    <clipPath id="clip444">
      <use xlink:href="#path443" />
    </clipPath>
    <filter x="-50.00%" y="-50.00%" width="200.00%" height="200.00%" filterUnits="objectBoundingBox" id="filter445">
      <feColorMatrix type="matrix" values="0 0 0 0 1.5  0 0 0 0 1.5  0 0 0 0 1.5  0 0 0 1 0  " in="SourceGraphic" />
    </filter>
  </defs>
  <g transform="matrix(1 0 0 1 -20 -20 )">
    <g transform="matrix(0.029296875 0 0 0.029296875 20 20 )" clip-path="url(#clip444)" filter="url(#filter445)">
      <path d="M914.368 673.664h-519.68c-25.152 0-45.568-22.016-45.568-48.896 0-26.88 20.416-48.896 45.568-48.896h519.68c25.216 0 45.632 22.016 45.632 48.896 0 26.88-20.48 48.896-45.632 48.896z m0-228.096h-519.68c-25.152 0-45.568-21.952-45.568-48.896 0-26.88 20.416-48.896 45.568-48.896h519.68c25.216 0 45.632 22.016 45.632 48.896 0 26.88-20.48 48.896-45.632 48.896z m-3.264-219.904H115.328c-26.88 0-50.56-20.352-51.328-47.168A48.896 48.896 0 0 1 112.896 128h795.776c26.88 0 50.56 20.416 51.328 47.168a48.896 48.896 0 0 1-48.896 50.56z m-619.776 447.232V348.672L64 510.784l227.328 162.112c0 0.768 0 0.768 0 0z m-178.432 122.944h795.776c26.88 0 50.56 20.48 51.328 47.232a48.896 48.896 0 0 1-48.896 50.496H115.328c-26.88 0-50.56-20.416-51.328-47.232a48.896 48.896 0 0 1 48.896-50.496z" p-id="1130"></path>
    </g>
  </g>
</svg>