<svg t="1590591208469" class="icon" viewBox="0 0 1024 1024" version="1.1" xmlns="http://www.w3.org/2000/svg" p-id="18343" width="200" height="200"><path d="M964.842667 618.368a17.066667 17.066667 0 0 1 0 3.52l-16.768 162.176a17.066667 17.066667 0 0 1-29.056 10.304l-44.8-44.8C781.546667 826.837333 653.482667 874.666667 512 874.666667c-141.461333 0-269.525333-47.808-362.197333-125.098667l-44.821334 44.8a17.066667 17.066667 0 0 1-28.693333-8.192l-0.362667-2.133333-16.768-162.154667a17.066667 17.066667 0 0 1 14.506667-18.645333l2.090667-0.170667 2.133333 0.085333 162.176 16.768a17.066667 17.066667 0 0 1 11.946667 27.136l-1.642667 1.92-39.978667 39.957334C287.146667 750.592 393.28 789.333333 512 789.333333c118.72 0 224.874667-38.72 301.610667-100.394666l-39.978667-39.957334a17.066667 17.066667 0 0 1 10.304-29.056l162.176-16.768a17.066667 17.066667 0 0 1 18.730667 15.210667zM542.165333 116.138667L874.048 448l-60.352 60.330667L512 206.634667 210.304 508.330667 149.952 448 481.834667 116.138667a42.666667 42.666667 0 0 1 60.330666 0z" p-id="18344" fill="#1296db"></path></svg>