<svg t="1590593790597" class="icon" viewBox="0 0 1024 1024" version="1.1" xmlns="http://www.w3.org/2000/svg" p-id="1055" width="200" height="200"><path d="M512.099 63.252c-247.304 0-448.5 201.196-448.5 448.5s201.196 448.5 448.5 448.5 448.5-201.196 448.5-448.5-201.195-448.5-448.5-448.5z m0 878.266c-236.973 0-429.766-192.793-429.766-429.766S275.126 81.986 512.099 81.986c236.969 0 429.766 192.793 429.766 429.766S749.068 941.518 512.099 941.518z" p-id="1056" fill="#1296db"></path><path d="M780.57 537.527c-0.505-1.755-1.093-3.382-2.225-5.211-0.666-1.168-1.708-2.621-3.131-4.028-1.737-1.684-3.707-2.764-5.532-3.14a75.12 75.12 0 0 0-2.903-0.269c-1.293 0-2.338 0.098-4.199 0.662a13.591 13.591 0 0 0-5.169 4.01c-1.156 1.826-1.938 3.928-2.081 5.703-2.473 19.857-7.508 39.231-14.781 57.753-7.484 18.579-17.227 36.069-29.036 51.609a189.03 189.03 0 0 1-19.403 22.335 214.697 214.697 0 0 1-21.355 18.77c-4.143 3.41-8.373 6.33-12.699 9.293-3.913 2.759-8.056 5.26-12.217 7.575-8.122 4.774-16.631 8.779-25.331 12.399a188.967 188.967 0 0 1-27.108 8.402c-9.234 2.054-18.409 3.495-27.279 4.028-4.673 0.517-9.388 0.61-13.892 0.61-1.805 0-3.728 0-5.54-0.063-3.386-0.03-6.818-0.247-10.025-0.599-3.311-0.209-6.658-0.48-9.851-0.988-6.599-0.807-12.748-1.781-18.524-3.131-8.458-2.109-16.631-4.65-24.393-7.874-8.275-3.317-15.866-7.323-22.691-11.599-7.393-4.667-14.097-9.752-20.164-15.013-6.427-5.653-12.699-12.153-18.309-18.972-5.099-6.723-9.645-13.469-13.336-20.131a123.036 123.036 0 0 1-9.318-20.064c-2.443-6.669-4.206-13.805-5.535-21.099-1.277-7.095-1.69-14.275-1.624-21.492 0.162-6.773 0.939-13.705 2.338-20.411 0.709-3.674 1.713-7.03 2.749-10.544a89.058 89.058 0 0 1 3.819-9.93c3.061-6.938 6.251-12.542 9.95-17.441 1.628-2.266 3.296-4.598 5.292-6.641 2.123-2.15 4.296-4.226 6.499-5.972a75.76 75.76 0 0 1 5.651-3.957c1.783-1.115 3.609-2.144 5.398-3.158a69.351 69.351 0 0 1 11.143-4.398c2.75-0.867 5.65-1.365 9.36-1.563-3.458 5.758-6.155 11.817-8.073 18.233-1.718 5.283-2.748 10.77-3.16 16.304a81.49 81.49 0 0 0-0.115 16.225c0.823 11.218 3.63 22.48 8.425 33.325 2.351 5.349 5.026 10.454 8.273 15.574a100.19 100.19 0 0 0 4.785 6.671c1.742 2.264 3.552 4.573 5.511 6.746 4.324 4.737 8.175 8.416 11.944 11.625 4.576 3.865 9.071 7.288 13.644 10.256 9.97 6.398 20.844 11.384 32.335 14.914 11.348 3.459 23.329 5.418 35.461 5.837 1.654 0.085 3.211 0.085 4.807 0.148 10.875 0 21.648-1.293 32.065-3.729 7.498-1.752 12.073-3.17 16.594-4.865 3.83-1.435 7.608-2.819 11.132-4.26 3.678-1.504 7.252-3.11 10.596-4.851 6.982-3.385 13.799-7.691 20.589-12.725 6.683-4.979 13.133-10.632 19.615-17.158 6.11-6.264 11.813-12.954 17.829-20.596 8.237-11.32 15.054-23.471 20.524-36.085 5.284-12.448 9.173-25.674 11.78-39.286 1.165-6.395 2.218-13.269 2.771-20.599 0.571-6.924 0.732-14.066 0.732-21.204-0.226-14.604-2.103-29.268-5.738-43.978-3.232-13.889-8.083-27.481-14.212-40.449-6.066-13.232-13.601-25.787-22.677-37.877-8.883-11.689-18.783-22.77-29.566-32.272-2.586-2.487-5.242-4.878-8.054-7.053-2.377-2.036-5.057-3.989-7.734-6.156-6.405-4.408-12.932-8.893-19.379-13.38-0.511-0.306-0.966-0.62-1.398-0.903-3-1.717-5.86-3.443-8.785-5.139-1.145-0.57-2.293-1.025-3.984-1.971-0.938-0.439-1.855-0.935-2.77-1.343-0.61-0.331-1.186-0.658-1.713-0.95-0.823-0.412-1.554-0.817-2.956-1.698-13.172-6.633-27.043-11.079-40.292-15.135-6.203-1.447-12.451-2.924-18.786-4.074-5.675-1.23-11.484-2.117-17.278-2.97-18.07-2.306-36.546-2.869-54.161-1.74-4.758 0.284-9.36 0.888-14.049 1.493-4.986 0.682-9.863 1.672-14.804 2.742-5.334 1.215-10.662 2.614-15.994 4.055-1.032 0.235-2.062 0.545-3.068 0.797-7.388 2.145-13.434 4.146-18.644 6.652-2.797 1.288-5.428 2.453-8.123 4.016-2.09 1.32-4.121 2.64-5.994 4.045-1.998 1.621-3.893 3.178-5.477 4.995-1.444 1.589-2.608 3.401-3.678 5.553-0.936 2.28-1.372 4.581-1.245 6.493 0.059 2.663 0.895 5.118 2.316 6.831 1.256 1.819 3.07 3.111 4.945 3.8 3.039 1.193 4.274 0.838 7.043 0.446 1.309-0.467 2.634-1.031 3.936-1.552 2.06-0.857 4.026-1.578 7.095-2.743 0.668-0.227 1.304-0.453 1.996-0.683 2.398-0.873 4.779-1.796 7.366-2.541a216.675 216.675 0 0 1 15.694-4.601 226.182 226.182 0 0 1 15.994-3.46c5.447-0.901 10.85-1.654 16.341-2.356 9.93-1.058 20.8-1.455 31.256-1.088 10.164 0.392 20.021 1.457 29.708 3.054 10.453 1.901 21.007 4.601 31.185 7.903 10.388 3.481 20.526 7.665 29.813 12.402 9.451 4.766 18.467 10.154 26.413 15.765a175.125 175.125 0 0 1 24.049 20.134c6.126 6.135 11.78 12.519 16.744 19.048 4.873 6.448 9.496 13.579 13.772 20.943 2.336 4.291 4.579 8.524 6.598 12.913 1.903 3.914 3.592 7.755 5.241 11.664 3.083 7.617 5.603 15.473 7.592 23.219 1.782 8.136 3.275 16.238 3.797 24.006 0.598 7.542 0.712 15.104 0.164 22.57-0.511 7.349-1.605 14.814-3.275 22.448-1.645 7.507-3.776 15.192-6.568 22.997-3.48 8.145-6.953 15.293-10.917 21.719a139.617 139.617 0 0 1-12.678 18.051 117.54 117.54 0 0 1-15.189 14.939c-5.498 4.536-11.648 8.759-18.195 12.51a111.238 111.238 0 0 1-18.899 8.178c-3.408 1.141-6.869 2.076-10.362 2.908-3.363 0.7-6.937 1.213-10.624 1.566-6.498 0.833-13.246 1.062-19.771 0.267-2.926-0.328-5.761-0.768-8.531-1.457-2.954-0.563-5.856-1.576-8.536-2.513-1.963-0.973-4.098-1.824-6.105-2.969-1.992-1.028-3.843-2.124-5.839-3.388-3.573-2.244-6.798-4.788-9.564-7.577a33.537 33.537 0 0 1-5.789-6.946c8.422 0.994 15.929 0.446 23.566-1.157 5.361-1.088 10.372-2.487 15.214-4.525 4.86-1.975 9.818-4.545 14.534-7.53 5.084-3.316 9.913-6.974 14.075-11.001a106.684 106.684 0 0 0 6.038-5.949c2.108-2.172 4.003-4.646 5.842-7.009 4.324-5.42 7.793-11.143 10.66-16.704 1.393-2.473 2.579-4.894 3.473-7.214 0.966-1.847 1.578-3.738 2.658-6.643 0.617-2.087 1.357-3.983 2.061-6.278a163.207 163.207 0 0 0 2.541-10.593 154.01 154.01 0 0 0 1.102-6.381 111.1 111.1 0 0 0 1.05-10.325c0.774-12.054-0.235-24.119-2.869-36.057-2.672-12.08-6.883-23.707-12.719-34.36-5.625-10.781-12.81-20.873-21.3-30.125-0.437-0.477-0.872-0.882-1.256-1.319-2.499-2.254-4.348-4.171-6.222-6.529a32.48 32.48 0 0 1-1.449-1.595c-0.985-0.783-1.988-1.515-3.038-2.092-0.477-0.226-0.958-0.567-1.422-0.816-29.493-27.797-61.099-35.36-90.951-39.338-14.584-1.633-29.45-1.286-44.399 0.605-14.735 2.208-29.31 5.993-43.312 11.513a165.288 165.288 0 0 0-10.323 4.274c-3.503 1.539-7.053 3.323-10.572 5.087-7.253 3.835-13.544 7.618-19.403 11.538-12.883 8.752-24.685 18.839-35.233 29.874-10.418 11.228-19.566 23.514-27.37 36.515-7.922 13.089-14.694 27.656-19.979 43.176-3.502 10.497-6.357 21.831-8.495 33.861-0.596 3.458-1.185 6.817-1.667 11.461-0.163 1.215-0.249 2.428-0.414 3.668-0.043 0.55-0.043 1.147-0.105 1.675-0.328 4.437-0.626 8.869-0.938 13.285-0.048 0.918-0.048 1.749-0.13 2.643a394.061 394.061 0 0 0-0.61 6.35 53.915 53.915 0 0 0 0 5.424c0.07 2.43 0.277 4.722 0.443 7.095 0.082 1.557 0.167 3.09 0.296 4.622 0 0.839 0.064 1.578 0 3.09 0.752 13.807 3.379 26.845 7.038 42.634 2.748 9.443 5.362 17.937 8.473 25.893 3.061 8.245 6.605 16.275 10.361 24.005 2.082 4.303 4.348 8.652 7.187 13.692 0.846 1.65 1.784 3.262 2.698 4.845a164.748 164.748 0 0 0 4 6.414c2.159 3.593 4.473 7.094 6.845 10.608 1.946 2.984 4.263 5.993 6.518 8.636 3.028 4.049 6.485 7.735 9.732 11.461 0.483 0.427 0.866 0.888 1.277 1.323 2.225 2.317 4.283 4.578 6.273 6.589 1.924 2.059 3.843 3.978 5.695 5.61 1.392 1.436 2.841 2.741 4.253 4.093 1.513 1.392 2.954 2.698 4.403 3.911 0.82 0.712 1.798 1.378 2.721 2.101 0.384 0.422 0.838 0.834 1.229 1.201 1.515 1.047 2.863 2.175 4.438 3.199a48.161 48.161 0 0 0 4.212 2.725c1.491 0.959 2.981 1.692 4.582 2.452 2.684 1.387 5.469 2.558 8.118 3.338 1.518 0.37 3.044 0.638 4.443 0.889a18.31 18.31 0 0 0 2.77 0.226c0.547-0.073 1.12-0.073 1.668-0.107 1.351-0.162 2.627-0.513 4.85-1.208 0.846-0.468 1.585-0.966 3.204-2.024 0.803-0.76 1.625-1.67 2.47-3.132 0.762-1.073 1.167-2.419 1.629-4.604 0.022-1.754-0.207-3.131-0.619-4.784-0.395-0.824-0.853-1.634-1.257-2.473-0.049-0.224-0.369-0.666-0.483-0.666 0 0 0 0.051 0.112 0.192-0.69-0.754-1.42-1.626-2.081-2.402-0.784-0.482-1.393-1.128-2.04-1.625-2.768-2.175-5.53-4.347-8.307-6.544-1.549-1.481-3.269-2.881-4.845-4.422-2.04-1.753-4.048-3.538-5.932-5.462-2.084-1.803-3.941-3.772-5.858-5.653-3.751-3.988-7.506-8.006-11.079-12.008-3.678-4.611-7.5-9.29-11.023-14.262-10.233-14.119-18.713-29.459-25.289-45.466-7.159-17.364-12.033-35.724-14.509-54.693-1.437-10.277-1.917-19.764-1.805-28.857 0-9.414 0.482-18.776 1.926-27.71 1.235-9.31 3.318-18.487 5.972-27.137 2.628-8.687 6.057-17.314 10.002-25.76 3.925-8.21 8.691-16.406 13.864-24.316 1.574-2.272 3.138-4.538 4.762-6.874 1.527-2.103 3.197-4.254 4.803-6.385a166.26 166.26 0 0 1 9.019-10.598c5.922-6.298 12.351-12.284 19.216-17.384a147.768 147.768 0 0 1 21.373-14.013c7.03-3.811 14.87-7.222 23.378-10.093 8.181-2.768 16.989-4.935 25.659-6.482 7.92-1.018 15.146-1.463 22.081-1.463h2.125c7.079 0.057 14.395 0.652 21.739 2.045 7.079 1.233 14.095 3.195 20.965 5.708 6.838 2.573 13.388 5.605 19.381 9.122 6.24 3.791 11.923 8.01 17.044 12.633 2.585 2.358 5.014 4.817 7.441 7.437 2.287 2.648 4.435 5.263 6.522 8.161 4.412 5.7 7.775 11.611 10.455 17.363 1.185 2.721 2.108 5.46 2.975 8.089 0.852 2.926 1.467 5.69 1.854 8.508 0.321 2.592 0.589 5.149 0.71 7.614a69.309 69.309 0 0 1 0 6.854c-0.247 4.67-0.936 8.919-2.078 12.86-0.9 3.495-2.276 6.91-4.464 10.165-0.455 0.859-0.984 1.71-1.676 2.441-3.202-7.233-7.527-14.077-12.739-20.064-6.734-7.79-15.397-14.594-25.127-19.566a103.265 103.265 0 0 0-33.662-10.565c-5.169-0.803-10.249-1.152-15.513-1.152h-2.313c-2.791 0.115-5.532 0.212-8.479 0.476-2.891 0.299-5.823 0.96-8.702 1.363-5.743 1.022-11.532 2.55-17.414 4.588a109.756 109.756 0 0 0-16.425 6.895c-10.689 5.421-20.396 12.316-29.274 20.484-8.673 8.004-16.471 17.541-23.18 28.272-6.593 10.545-11.734 21.853-15.606 34.744-0.547 3.11-1.121 5.736-1.853 7.136-0.411 1.215-0.895 2.422-1.298 3.588-0.05 1.064-0.164 1.975-0.285 4.48 0.05 0.233 0.05 0.42 0.121 0.638-9.473 39.595-0.121 70.673 11.304 98.511 5.968 13.438 13.483 25.996 22.339 37.327 8.684 11.585 19.239 22.359 31.09 31.968 4.468 3.658 9.199 7.117 14.027 10.455 7.714 5.191 15.694 9.834 24.069 14.076 5.263 2.626 10.554 4.965 16.178 7.244a221.447 221.447 0 0 0 27.328 8.441c14.874 3.668 30.22 5.614 45.509 5.933 1.578 0.021 3.183 0.051 4.742 0.099 14.161 0 28.371-1.535 42.188-4.219a228.705 228.705 0 0 0 35.2-9.883c3.067-1.124 6.198-2.474 9.061-3.638 0.498-0.178 1.121-0.441 1.982-0.867 8.179-3.872 16.369-7.706 24.516-11.555 1.576-0.887 2.861-1.739 4.324-2.677a146.603 146.603 0 0 0 5.697-3.687c1.441-0.956 2.769-1.853 4.162-2.776 0.78-0.427 1.583-0.997 2.903-1.71 11.513-7.501 21.604-16.273 33.345-27.295a340.8 340.8 0 0 0 19.537-21.966c5.753-7.093 11.334-14.694 16.387-22.57 3.568-5.41 7.008-11.114 10.139-16.675 1.803-3.115 3.379-6.147 5.099-9.446 0.248-0.512 0.577-1.029 0.803-1.573a57.885 57.885 0 0 0 1.515-3.212c1.051-1.947 1.938-4.028 2.691-5.808 0.602-1.536 1.263-2.886 2.3-5.535 0.654-1.854 1.498-3.855 2.045-5.751 1.904-5.263 3.673-10.575 5.134-15.907 1.095-3.752 2.053-7.441 3.473-12.474 0.078-0.724 0.35-1.481 0.372-2.033 0.247-1.162 0.502-2.328 0.781-3.506 0.865-4.275 1.718-8.55 2.122-12.774 0.247-1.699 0.393-3.512 0.484-5.527v-5.043c-0.003-2.284-0.239-4.457-0.673-6.831-0.223-1.671-0.509-3.318-1.19-5.2z" p-id="1057" fill="#1296db"></path></svg>