<?xml version="1.0" encoding="utf-8"?>
<svg version="1.1" xmlns:xlink="http://www.w3.org/1999/xlink" width="80px" height="80px" xmlns="http://www.w3.org/2000/svg">
  <defs>
    <path d="M 0 0  L 1024 0  L 1024 1024  L 0 1024  Z " fill-rule="evenodd" fill="black" id="path455" />
    <clipPath id="clip456">
      <use xlink:href="#path455" />
    </clipPath>
    <filter x="-50.00%" y="-50.00%" width="200.00%" height="200.00%" filterUnits="objectBoundingBox" id="filter457">
      <feColorMatrix type="matrix" values="0 0 0 0 1  0 0 0 0 1  0 0 0 0 1  0 0 0 1 0  " in="SourceGraphic" />
    </filter>
  </defs>
  <g transform="matrix(1 0 0 1 -1560 -100 )">
    <g transform="matrix(0.078125 0 0 0.078125 1560 100 )" clip-path="url(#clip456)" filter="url(#filter457)">
      <path d="M491.552 300.32h111.408v240.272c0 18.528 14.688 33.552 32.816 33.552 18.144 0 32.832-15.04 32.832-33.552V300.304h111.296c7.264-0.08 13.92-4.048 17.456-10.4 3.632-6.4 3.68-14.24 0.112-20.672L653.184 14.032a19.936 19.936 0 0 0-17.456-10.496 19.936 19.936 0 0 0-17.52 10.496l-144.064 255.2c-3.632 6.4-3.664 14.24-0.048 20.688 3.52 6.368 10.224 10.352 17.504 10.4h-0.048z" p-id="1792"></path>
      <path d="M1009.792 628.32l-128.304-75.808a19.936 19.936 0 0 0-20.224 0.048 20.896 20.896 0 0 0-10.176 17.856v42.32H200.816c-59.888 0.112-112.256-41.248-127.28-100.448a135.424 135.424 0 0 1 63.264-151.136 129.2 129.2 0 0 1 158.992 24.864c41.232 44.4 47.84 111.68 16.096 163.616-8.96 15.648-4.16 35.584 10.96 45.424 15.04 9.6 34.864 5.248 44.688-9.84a204.8 204.8 0 0 0-24.176-245.36 193.776 193.776 0 0 0-238.416-37.408C26.4 346.976-12.64 440.208 9.904 529.056c22.608 88.88 101.136 150.848 190.912 150.8h650.4v42.08c0 7.36 3.888 14.128 10.16 17.856a19.84 19.84 0 0 0 20.16 0.112l128.32-75.808c6.4-3.696 10.304-10.528 10.272-17.92a20.56 20.56 0 0 0-10.288-17.856h-0.048z m-374.016 126.672a33.216 33.216 0 0 0-32.768 33.552v198.368c0 18.528 14.704 33.552 32.768 33.552 18.144 0 32.832-15.024 32.832-33.552V788.608a33.216 33.216 0 0 0-32.768-33.616h-0.064z m-270.88 0a33.216 33.216 0 0 0-32.832 33.552v198.368c0 18.528 14.688 33.552 32.768 33.552 18.128 0 32.88-15.024 32.88-33.552V788.608a33.216 33.216 0 0 0-32.832-33.616z" p-id="1793"></path>
    </g>
  </g>
</svg>