<?xml version="1.0" encoding="utf-8"?>
<svg version="1.1" xmlns:xlink="http://www.w3.org/1999/xlink" width="80px" height="80px" xmlns="http://www.w3.org/2000/svg">
  <defs>
    <path d="M 0 0  L 1024 0  L 1024 1024  L 0 1024  Z " fill-rule="evenodd" fill="black" id="path449" />
    <clipPath id="clip450">
      <use xlink:href="#path449" />
    </clipPath>
    <filter x="-50.00%" y="-50.00%" width="200.00%" height="200.00%" filterUnits="objectBoundingBox" id="filter451">
      <feColorMatrix type="matrix" values="0 0 0 0 1  0 0 0 0 1  0 0 0 0 1  0 0 0 1 0  " in="SourceGraphic" />
    </filter>
  </defs>
  <g transform="matrix(1 0 0 1 -820 -100 )">
    <g transform="matrix(0.078125 0 0 0.078125 820 100 )" clip-path="url(#clip450)" filter="url(#filter451)">
      <path d="M925.1 767.2c-28-27.2-72.7-26.6-99.9 1.4-107 110-282.9 112.5-393 5.5-110-107-112.5-282.9-5.5-393s282.9-112.5 393-5.5l0.8 0.8c28 27.2 72.7 26.6 99.9-1.4 27.2-28 26.6-72.7-1.4-99.9-0.3-0.3-0.5-0.5-0.8-0.7-166-161.4-431.3-157.7-592.7 8.3S167.8 714 333.7 875.3 765.1 1033 926.5 867c27.1-27.9 26.5-72.6-1.4-99.8zM208.2 303.3c-73.9 0-134-60.1-134-134s60.1-134 134-134 134 60.1 134 134-60.1 134-134 134z m0-194.9c-33.6 0-60.9 27.3-60.9 60.9s27.3 60.9 60.9 60.9 60.9-27.3 60.9-60.9-27.3-60.9-60.9-60.9z" p-id="6047"></path>
    </g>
  </g>
</svg>