<?xml version="1.0" encoding="utf-8"?>
<svg version="1.1" xmlns:xlink="http://www.w3.org/1999/xlink" width="30px" height="30px" xmlns="http://www.w3.org/2000/svg">
  <defs>
    <path d="M 0 0  L 1024 0  L 1024 1024  L 0 1024  Z " fill-rule="evenodd" fill="black" id="path476" />
    <clipPath id="clip477">
      <use xlink:href="#path476" />
    </clipPath>
    <filter x="-50.00%" y="-50.00%" width="200.00%" height="200.00%" filterUnits="objectBoundingBox" id="filter478">
      <feColorMatrix type="matrix" values="0.7 0 0 0 0.75  0 0.7 0 0 0.75  0 0 0.7 0 0.75  0 0 0 1 0  " in="SourceGraphic" />
    </filter>
  </defs>
  <g transform="matrix(1 0 0 1 -35 -300 )">
    <g transform="matrix(0.029296875 0 0 0.029296875 35 300 )" clip-path="url(#clip477)" filter="url(#filter478)">
      <path d="M627.2 541.8496l55.4496-119.4496c8.5504-17.0496 2.8672-32.7168-17.0496-46.9504-22.7328-11.3664-38.4-8.4992-46.9504 8.5504l-72.4992 153.6v4.2496h-21.3504V537.6L452.2496 388.2496c-11.3664-17.0496-26.9824-18.432-46.8992-4.2496-19.968 11.3664-25.6 24.1664-17.1008 38.4l59.7504 119.4496H388.2496c-25.6 0-38.4 11.4176-38.4 34.1504 0 25.6 12.8 38.4 38.4 38.4h106.7008v46.9504H388.2496c-25.6 0-38.4 12.8-38.4 38.4 0 22.7328 12.8 34.0992 38.4 34.0992h106.7008v106.7008c0 25.6 11.3664 38.4 34.0992 38.4 25.6 0 38.4-12.8 38.4-38.4v-106.7008h106.7008c22.7328 0 34.0992-11.3664 34.0992-34.0992 0-25.6-11.3664-38.4-34.0992-38.4h-106.7008V614.4h106.7008c22.7328 0 34.0992-12.8 34.0992-38.4 0-22.7328-11.3664-34.1504-34.0992-34.1504h-46.9504zM51.2 38.4C34.1504 55.4496 25.6 76.8 25.6 102.4v836.2496c0 22.784 8.5504 42.7008 25.6 59.7504 17.0496 17.0496 36.9664 25.6 59.7504 25.6h806.4c25.6 0 46.8992-8.5504 64-25.6 17.0496-17.0496 25.6-36.9664 25.6-59.7504V883.2c0-19.9168-9.984-29.8496-29.9008-29.8496-19.9168 0-29.8496 9.9328-29.8496 29.8496v55.4496c0 19.968-9.9328 29.9008-29.8496 29.9008H110.9504c-19.968 0-29.9008-9.984-29.9008-29.9008V102.4l448 209.0496L947.2 115.2v503.4496c0 19.968 9.9328 29.9008 29.8496 29.9008 19.968 0 29.9008-9.984 29.9008-29.9008V85.3504l-8.5504-25.6-8.5504-12.8C972.8 24.1664 948.6336 12.8 917.3504 12.8H110.9504c-22.784 0-42.7008 8.5504-59.7504 25.6z m844.8 34.1504L529.0496 243.2 162.1504 72.5504H896z" p-id="14479"></path>
    </g>
  </g>
</svg>