<svg t="1590590352778" class="icon" viewBox="0 0 1149 1024" version="1.1" xmlns="http://www.w3.org/2000/svg" p-id="13888" width="200" height="200"><path d="M888.676193 1023.989029C779.61039 1023.989029 691.192594 935.571233 691.192594 826.50543 691.192594 756.482866 727.668546 695.021582 782.620186 659.953615L782.620186 100.570351C782.620186 45.02626 827.646447 0 883.190537 0L886.847641 0C942.391732 0 987.417992 45.02626 987.417992 100.570351L987.417992 655.506577C1046.429017 689.656611 1086.159791 753.42187 1086.159791 826.50543 1086.159791 935.571233 997.741996 1023.989029 888.676193 1023.989029ZM947.189852 111.541662C947.189852 78.214476 920.174827 51.199451 886.847641 51.199451L883.190537 51.199451C849.863351 51.199451 822.848327 78.214476 822.848327 111.541662L822.848327 415.081267 947.189852 415.081267 947.189852 111.541662ZM0 593.90998 0 188.691921C0 161.23073 22.403417 138.96994 50.036492 138.96994L694.849698 138.96994 694.849698 233.440242 541.642654 233.440242C524.370153 233.440242 510.37076 247.351864 510.37076 264.514652L510.37076 266.997825C510.37076 284.160613 524.370153 298.075892 541.642654 298.075892L694.849698 298.075892 694.849698 360.224712 541.642654 360.224712C524.370153 360.224712 510.37076 374.136334 510.37076 391.299122L510.37076 393.785952C510.37076 410.94874 524.370153 424.860362 541.642654 424.860362L694.849698 424.860362 694.849698 487.012839 126.341961 487.012839C109.06946 487.012839 95.070067 500.924462 95.070067 518.087249L95.070067 520.570422C95.070067 537.73321 109.06946 551.648489 126.341961 551.648489L694.849698 551.648489 694.849698 643.628304 50.036492 643.628304C22.403417 643.628304 0 621.367514 0 593.90998ZM95.070067 393.785952C95.070067 410.94874 109.06946 424.860362 126.341961 424.860362L416.551423 424.860362C433.823923 424.860362 447.823316 410.94874 447.823316 393.785952L447.823316 391.299122C447.823316 374.136334 433.823923 360.224712 416.551423 360.224712L126.341961 360.224712C109.06946 360.224712 95.070067 374.136334 95.070067 391.299122L95.070067 393.785952ZM95.070067 266.997825C95.070067 284.160613 109.06946 298.075892 126.341961 298.075892L416.551423 298.075892C433.823923 298.075892 447.823316 284.160613 447.823316 266.997825L447.823316 264.514652C447.823316 247.351864 433.823923 233.440242 416.551423 233.440242L126.341961 233.440242C109.06946 233.440242 95.070067 247.351864 95.070067 264.514652L95.070067 266.997825ZM167.61969 842.508916C167.61969 842.508916 160.429824 836.215041 160.115313 822.621586 159.844687 810.831084 170.121149 795.277422 170.121149 795.277422L242.674428 708.263954 243.570419 709.020975C249.520527 702.467445 258.107406 698.320289 267.692675 698.320289 285.656368 698.320289 300.215298 712.791449 300.215298 730.638115 300.215298 740.55618 295.713403 749.417342 288.640565 755.345507L240.17297 812.677921C240.17297 812.677921 237.671511 816.623936 237.671511 820.134756 237.671511 824.058828 240.17297 827.595247 240.17297 827.595247L295.21238 889.744067C295.21238 889.744067 300.474952 895.525948 300.215298 912.118227 300.061699 922.032635 292.710921 932.005557 292.710921 932.005557L217.656182 1019.015368 216.416424 1018.031607C211.109967 1021.769167 204.644207 1023.989029 197.644511 1023.989029 179.680818 1023.989029 165.118231 1009.517869 165.118231 991.667546 165.118231 980.17327 171.178052 970.105263 180.276926 964.378239L222.6591 914.605058C222.6591 914.605058 225.160559 912.216969 225.160559 909.631397 225.160559 907.254279 222.6591 904.657736 222.6591 904.657736L167.61969 842.508916ZM337.744496 842.508916C337.744496 842.508916 330.550973 836.215041 330.240119 822.621586 329.965836 810.831084 340.245955 795.277422 340.245955 795.277422L412.799234 708.263954 413.691568 709.020975C419.641675 702.467445 428.232212 698.320289 437.817481 698.320289 455.777517 698.320289 470.340103 712.791449 470.340103 730.638115 470.340103 740.55618 465.834552 749.417342 458.761713 755.345507L410.297775 812.677921C410.297775 812.677921 407.796316 816.623936 407.796316 820.134756 407.796316 824.058828 410.297775 827.595247 410.297775 827.595247L465.337186 889.744067C465.337186 889.744067 470.599758 895.525948 470.340103 912.118227 470.186505 922.032635 462.835727 932.005557 462.835727 932.005557L387.780988 1019.015368 386.54123 1018.031607C381.234772 1021.769167 374.765356 1023.989029 367.76566 1023.989029 349.801966 1023.989029 335.243037 1009.517869 335.243037 991.667546 335.243037 980.17327 341.2992 970.105263 350.401731 964.378239L392.783906 914.605058C392.783906 914.605058 395.285365 912.216969 395.285365 909.631397 395.285365 907.254279 392.783906 904.657736 392.783906 904.657736L337.744496 842.508916ZM507.865644 842.508916C507.865644 842.508916 500.672121 836.215041 500.361268 822.621586 500.090642 810.831084 510.37076 795.277422 510.37076 795.277422L582.920383 708.263954 583.812716 709.020975C589.766481 702.467445 598.357018 698.320289 607.938629 698.320289 625.902322 698.320289 640.461252 712.791449 640.461252 730.638115 640.461252 740.55618 635.959358 749.417342 628.886519 755.345507L580.418924 812.677921C580.418924 812.677921 577.917465 816.623936 577.917465 820.134756 577.917465 824.058828 580.418924 827.595247 580.418924 827.595247L635.458334 889.744067C635.458334 889.744067 640.720907 895.525948 640.461252 912.118227 640.307654 922.032635 632.956875 932.005557 632.956875 932.005557L557.902137 1019.015368 556.662379 1018.031607C551.355921 1021.769167 544.890162 1023.989029 537.886808 1023.989029 519.926772 1023.989029 505.364185 1009.517869 505.364185 991.667546 505.364185 980.17327 511.424006 970.105263 520.52288 964.378239L562.905055 914.605058C562.905055 914.605058 565.410171 912.216969 565.410171 909.631397 565.410171 907.254279 562.905055 904.657736 562.905055 904.657736L507.865644 842.508916Z" p-id="13889" fill="#1296db"></path></svg>