<svg t="1591275021122" class="icon" viewBox="0 0 1024 1024" version="1.1" xmlns="http://www.w3.org/2000/svg" p-id="4288" width="200" height="200"><path d="M512.154 65.183c-246.165 0-446.442 200.277-446.442 446.441 0 246.166 200.277 446.442 446.442 446.442 246.165 0 446.442-200.276 446.442-446.442 0-246.164-200.278-446.441-446.442-446.441z m0 837.079c-215.4 0-390.637-175.237-390.637-390.639 0-215.4 175.236-390.636 390.637-390.636S902.79 296.223 902.79 511.623c0 215.403-175.236 390.639-390.636 390.639z m167.415-418.54H344.74c-15.424 0-27.903 12.48-27.903 27.902 0 15.396 12.48 27.903 27.903 27.903h334.83c15.424 0 27.903-12.507 27.903-27.903 0-15.422-12.48-27.902-27.903-27.902z" p-id="4289" fill="#1296db"></path></svg>