<svg t="1590593688078" class="icon" viewBox="0 0 1172 1024" version="1.1" xmlns="http://www.w3.org/2000/svg" p-id="23380" width="200" height="200"><path d="M605.923937 828.134228A368.823266 368.823266 0 0 1 572.706935 90.487696a471.910515 471.910515 0 1 0 366.532439 531.472036 368.823266 368.823266 0 0 1-333.315437 206.174496z" p-id="23381" fill="#1296db"></path><path d="M758.263982 245.118568L801.789709 402.040268l43.525727-156.9217 158.067114-43.525727-158.067114-43.525727L801.789709 0l-43.525727 158.067114-156.9217 43.525727 156.9217 43.525727zM1081.270694 432.966443l91.633109-25.199105-91.633109-25.199105-26.34452-92.778524-25.199105 92.778524-92.778523 25.199105 92.778523 25.199105 25.199105 92.778523 26.34452-92.778523z" p-id="23382" fill="#1296db"></path></svg>