<?xml version="1.0" encoding="utf-8"?>
<svg version="1.1" xmlns:xlink="http://www.w3.org/1999/xlink" width="80px" height="80px" xmlns="http://www.w3.org/2000/svg">
  <defs>
    <path d="M 0 0  L 1024 0  L 1024 1024  L 0 1024  Z " fill-rule="evenodd" fill="black" id="path452" />
    <clipPath id="clip453">
      <use xlink:href="#path452" />
    </clipPath>
    <filter x="-50.00%" y="-50.00%" width="200.00%" height="200.00%" filterUnits="objectBoundingBox" id="filter454">
      <feColorMatrix type="matrix" values="0 0 0 0 1  0 0 0 0 1  0 0 0 0 1  0 0 0 1 0  " in="SourceGraphic" />
    </filter>
  </defs>
  <g transform="matrix(1 0 0 1 -1190 -100 )">
    <g transform="matrix(0.078125 0 0 0.078125 1190 100 )" clip-path="url(#clip453)" filter="url(#filter454)">
      <path d="M 512 198.942 c -247.292 0 -447.801 200.509 -447.801 447.801 c 0 63.3867 13.2273 123.649 37.0109 178.314 l 69.2021 0 l 683.183 0 l 52.6952 0 l 16.507 0 c 23.7786 -54.665 37.0048 -114.929 37.0048 -178.314 C 959.801 399.451 759.298 198.942 512 198.942 Z M 141.601 752.52 c -9.61703 -33.6187 -14.9229 -69.0394 -14.9229 -105.776 c 0 -212.801 172.521 -385.294 385.322 -385.294 c 212.807 0 385.322 172.493 385.322 385.294 c 0 36.7367 -5.30073 72.1574 -14.9229 105.776 L 141.601 752.52 Z" p-id="6771"></path>
      <path d="M 474.065 305.647 l 52.4209 0 l 0 88.7206 l -52.4209 0 l 0 -88.7206 Z" p-id="6772"></path>
      <path d="M 171.615 611.653 l 88.7155 0 l 0 52.4485 l -88.7155 0 l 0 -52.4485 Z" p-id="6773"></path>
      <path d="M 760.721 611.653 l 88.7145 0 l 0 52.4485 l -88.7145 0 l 0 -52.4485 Z" p-id="6774"></path>
      <path d="M 404.589 412.488 L 359.165 438.723 L 314.832 361.897 L 360.257 335.683 Z" p-id="6775"></path>
      <path d="M 598.04 412.488 L 643.468 438.723 L 687.796 361.897 L 642.371 335.683 Z" p-id="6776"></path>
      <path d="M 318.986 490.22 L 292.745 535.643 L 215.947 491.283 L 242.183 445.887 Z" p-id="6777"></path>
      <path d="M 697.966 490.22 L 724.202 535.643 L 801.005 491.283 L 774.771 445.887 Z" p-id="6778"></path>
      <path d="M 520.911 694.77 l -83.0894 -73.6351 l 83.0894 -65.9224 c -5.57497 -1.20341 -11.3126 -1.85832 -17.2744 -1.85832 c -45.5862 0 -82.5972 36.9772 -82.5972 82.5685 c 0 45.5862 37.0109 82.5685 82.5972 82.5685 c 45.5914 0 82.5409 -36.9833 82.5409 -82.5685 c 0 -6.75075 -0.87288 -13.2549 -2.40682 -19.5411 L 520.911 694.77 Z" p-id="6779"></path>
      <path d="M 477.402 611.653 L 731.092 405.132 L 520.967 660.659 L 475.923 614.166 Z" p-id="6780"></path>
    </g>
  </g>
</svg>