<?xml version="1.0" encoding="utf-8"?>
<svg version="1.1" xmlns:xlink="http://www.w3.org/1999/xlink" width="30px" height="30px" xmlns="http://www.w3.org/2000/svg">
  <defs>
    <path d="M 0 0  L 1024 0  L 1024 1024  L 0 1024  Z " fill-rule="evenodd" fill="black" id="path473" />
    <clipPath id="clip474">
      <use xlink:href="#path473" />
    </clipPath>
    <filter x="-50.00%" y="-50.00%" width="200.00%" height="200.00%" filterUnits="objectBoundingBox" id="filter475">
      <feColorMatrix type="matrix" values="0.7 0 0 0 0.75  0 0.7 0 0 0.75  0 0 0.7 0 0.75  0 0 0 1 0  " in="SourceGraphic" />
    </filter>
  </defs>
  <g transform="matrix(1 0 0 1 -35 -250 )">
    <g transform="matrix(0.029296875 0 0 0.029296875 35 250 )" clip-path="url(#clip474)" filter="url(#filter475)">
      <path d="M165.217477 467.327707c34.473131 83.269474 110.446434 138.09616 193.77219 138.09616 83.357479 0 159.348178-54.810313 193.802889-138.082857 35.577278-7.050578 66.443255-40.611943 76.20457-84.906764 5.73563-25.984808 3.595897-52.350285-6.033412-74.241869-10.733456-24.351612-30.162966-41.192157-53.353125-46.176681-2.454911-0.529049-5.810331-0.523933-7.556091-0.396019-9.128912 18.259871-25.327845 34.402522-46.895041 47.660474 2.440585 2.427282 5.299701 4.425798 8.559954 5.731537 6.889919 2.771112 14.562667 2.424212 21.133314-0.842181 3.896749-1.932002 7.488553-3.444448 13.860679-2.592034 9.47786 1.267876 14.760165 11.406791 17.137305 16.841569 5.300725 12.015658 6.370079 27.76536 2.959401 43.22035-6.287192 28.558422-25.51204 46.255475-41.57999 46.255475l-0.116657 0c-12.018728-0.958838-23.220858 5.97713-26.997881 17.270334-23.925916 71.498386-84.665264 119.540554-151.122845 119.540554-67.460421 0-126.76407-46.920624-151.087029-119.540554-3.495613-10.467396-14.93208-17.317406-26.132164-17.317406-0.887206 0-1.787715 0.047072-2.690271 0.148379-14.261815 0-33.556248-17.730822-39.877209-46.392598-3.428075-15.421221-2.338254-31.170922 2.944051-43.186581 2.390443-5.434778 7.640002-15.985062 20.246108-17.156747 3.244903-0.299829 6.887872 0.974187 10.798948 2.907212 6.620789 3.299138 14.32833 3.581571 21.134338 0.841157 3.260253-1.287319 6.101973-3.303232 8.525162-5.713117-21.584592-13.256928-37.800922-29.417999-46.929834-47.675824-1.824554-0.295735-5.408172-0.056282-7.883549 0.471744-23.157413 4.982477-42.254349 21.730925-52.986782 46.100956-9.648752 21.893631-11.788484 48.257062-6.037505 74.22345C98.795712 426.729067 129.655549 460.277129 165.217477 467.327707L165.217477 467.327707z" p-id="12392"></path>
      <path d="M181.554557 226.260363c0 48.05854 79.4638 87.001471 177.418738 87.001471 98.004057 0 177.45353-38.944978 177.45353-87.001471 0-1.917675-0.904602-3.699251-1.154289-5.583157L182.704753 220.677206C182.455066 222.560089 181.554557 224.342688 181.554557 226.260363L181.554557 226.260363z" p-id="12393"></path>
      <path d="M171.22019 168.754662l5.365193 18.109445 364.788102 0 5.369286-18.126841 26.16184-88.259114c2.360767-7.938808 1.35588-16.490575-2.789532-23.671113-4.162809-7.184631-11.083427-12.398375-19.195173-14.44908L406.036158 5.841286c-30.893606-7.788382-63.264867-7.788382-94.161543 0L167.072731 42.361029c-8.124026 2.050705-15.046691 7.265472-19.192103 14.44908-4.145412 7.180538-5.165648 15.732306-2.809998 23.655763L171.22019 168.754662 171.22019 168.754662z" p-id="12394"></path>
      <path d="M717.993021 925.189578l0 98.810422L0.021106 1024 0.021106 851.226048c0-102.603817 88.594759-185.773007 197.884857-185.773007l12.404515 0 92.222378 208.922234 25.845638-122.818203c-0.533142-0.611937-1.201361-1.099031-1.687431-1.760086l-20.879534-27.685542c-7.826244-10.388602-8.844433-24.015967-2.60943-35.330661 6.235003-11.299344 18.655891-18.410297 32.216741-18.410297l47.131425 0c13.558804 0 25.982761 7.110953 32.216741 18.410297 6.235003 11.315717 5.21579 24.942059-2.60943 35.330661l-20.880558 27.685542c-0.48607 0.645706-1.137916 1.11438-1.656732 1.713014l25.865081 122.862205 92.217262-208.922234 12.406561 0c22.608921 0 44.330637 3.560081 64.567535 10.113333-8.216123 20.774134-12.711506 43.278678-12.711506 66.782992C571.96317 829.505356 633.772896 902.93779 717.993021 925.189578z" p-id="12395"></path>
      <path d="M710.258875 813.547923m-14.123669 0a13.802 13.802 0 1 0 28.247337 0 13.802 13.802 0 1 0-28.247337 0Z" p-id="12396"></path>
      <path d="M803.113656 540.678277c-96.302299 0-174.355983 78.07108-174.355983 174.355983S706.811357 889.409686 803.113656 889.409686s174.374403-78.073127 174.374403-174.375426S899.416978 540.678277 803.113656 540.678277zM791.359964 773.481402c-4.819771 4.820794-65.499767 67.552519-65.499767 67.552519s-6.046715 6.066158-12.753462 6.066158c-6.704701 0-10.421348-3.781115-10.421348-3.781115l-22.262021-20.577659c0 0-6.025225-5.238303-6.279005-10.918674-0.255826-5.684465 6.075367-11.650338 6.075367-11.650338s59.230995-61.118994 64.195052-66.083051l0.001023 0.002047c3.985777-3.9868 8.123003-4.774746 10.755969-0.442068 3.623526 5.000896 6.98304 9.967 13.025661 15.957433 7.361663 7.36064 18.578119 13.692857 21.954006 15.791657C793.551885 767.080624 793.045349 772.017051 791.359964 773.481402zM849.504208 763.964657c-53.532204 0-96.928562-42.345423-96.928562-94.582122-0.002047-52.236698 43.394312-94.582122 96.927539-94.582122l0.001023 0c13.747092 0 17.729799 1.12359 28.027326 4.37668 10.297528 3.25616 7.624653 6.789635 2.25025 12.164038s-31.188319 32.340561-31.188319 32.340561c-4.314258 4.474917-4.183275 11.663641 0.289596 15.976876l32.51043 31.348978c4.473894 4.315281 11.661595 4.183275 15.975852-0.289596 0 0 26.810616-27.947509 30.722714-31.858584 3.911075-3.911075 9.818621-8.71959 13.0932-0.237407 3.275602 8.48423 5.248536 16.429177 5.248536 30.7616C946.434817 721.619234 903.038458 763.964657 849.504208 763.964657z" p-id="12397"></path>
    </g>
  </g>
</svg>