<?xml version="1.0" encoding="utf-8"?>
<svg version="1.1" xmlns:xlink="http://www.w3.org/1999/xlink" width="30px" height="30px" xmlns="http://www.w3.org/2000/svg">
  <defs>
    <path d="M 0 0  L 1536 0  L 1536 1024  L 0 1024  Z " fill-rule="evenodd" fill="black" id="path479" />
    <clipPath id="clip480">
      <use xlink:href="#path479" />
    </clipPath>
    <filter x="-50.00%" y="-50.00%" width="200.00%" height="200.00%" filterUnits="objectBoundingBox" id="filter481">
      <feColorMatrix type="matrix" values="0.7 0 0 0 0.75  0 0.7 0 0 0.75  0 0 0.7 0 0.75  0 0 0 1 0  " in="SourceGraphic" />
    </filter>
  </defs>
  <g transform="matrix(1 0 0 1 -35 -350 )">
    <g transform="matrix(0.01953125 0 0 0.01953125 35 355 )" clip-path="url(#clip480)" filter="url(#filter481)">
      <path d="M1177.6 475.648l-183.808-159.232c-10.24-8.704-23.552-13.824-36.864-13.824-14.336-0.512-28.16 5.12-38.912 14.848-10.24 9.728-16.384 23.552-16.896 37.888 0 15.36 6.656 29.696 18.432 39.424l76.8 66.56h-334.336c-19.456-0.512-37.376 9.216-47.616 26.112-9.728 16.896-9.728 37.376 0 54.272s28.16 26.624 47.616 26.112h334.848l-76.8 66.56c-11.776 9.728-18.432 24.064-18.432 39.424 0.512 29.696 25.088 53.76 55.296 53.248 13.312 0 26.624-4.608 36.864-13.824l183.808-159.232c11.776-9.728 18.432-24.576 18.432-39.424 0.512-14.336-6.144-29.184-18.432-38.912z m0 0" fill="#323232" p-id="15234"></path>
      <path d="M685.056 869.888H452.096V160.768h232.96c32.256 0 58.368-23.552 58.368-53.248 0-29.184-26.112-53.248-58.368-53.248H393.728c-32.256 0-58.368 23.552-58.368 53.248v815.616c0 29.184 26.112 53.248 58.368 53.248h290.816c32.256 0 58.368-23.552 58.368-53.248 0.512-29.184-25.6-53.248-57.856-53.248z m0 0" fill="#323232" p-id="15235"></path>
    </g>
  </g>
</svg>