<svg t="1590591154519" class="icon" viewBox="0 0 1024 1024" version="1.1" xmlns="http://www.w3.org/2000/svg" p-id="17854" width="200" height="200"><path d="M506.88 440.32h35.84V0h-35.84C384 0 281.6 97.28 281.6 220.16c0 117.76 102.4 220.16 225.28 220.16" p-id="17855" fill="#1296db"></path><path d="M578.56 460.8l20.48 30.72 384-220.16-20.48-30.72C901.12 133.12 768 102.4 660.48 158.72c-107.52 61.44-143.36 194.56-81.92 302.08M450.56 491.52l15.36-30.72-378.88-220.16-20.48 30.72C5.12 378.88 40.96 512 148.48 573.44c102.4 56.32 240.64 20.48 302.08-81.92M471.04 573.44l-20.48-30.72-384 220.16 20.48 30.72c61.44 107.52 194.56 138.24 302.08 81.92 102.4-66.56 138.24-199.68 81.92-302.08M880.64 486.4c-102.4-56.32-230.4-25.6-286.72 76.8l-15.36 30.72 363.52 204.8 15.36-30.72c61.44-97.28 25.6-220.16-76.8-281.6" p-id="17856" fill="#1296db"></path><path d="M542.72 614.4h-35.84v409.6h35.84c117.76 0 209.92-92.16 209.92-204.8s-97.28-204.8-209.92-204.8" p-id="17857" fill="#1296db"></path></svg>