<?xml version="1.0" encoding="utf-8"?>
<svg version="1.1" xmlns:xlink="http://www.w3.org/1999/xlink" width="30px" height="30px" xmlns="http://www.w3.org/2000/svg">
  <defs>
    <path d="M 0 0  L 1024 0  L 1024 1024  L 0 1024  Z " fill-rule="evenodd" fill="black" id="path482" />
    <clipPath id="clip483">
      <use xlink:href="#path482" />
    </clipPath>
    <filter x="-50.00%" y="-50.00%" width="200.00%" height="200.00%" filterUnits="objectBoundingBox" id="filter484">
      <feColorMatrix type="matrix" values="0.7 0 0 0 0.75  0 0.7 0 0 0.75  0 0 0.7 0 0.75  0 0 0 1 0  " in="SourceGraphic" />
    </filter>
  </defs>
  <g transform="matrix(1 0 0 1 -35 -202 )">
    <g transform="matrix(0.029296875 0 0 0.029296875 35 202 )" clip-path="url(#clip483)" filter="url(#filter484)">
      <path d="M810.7 298.7h128c23.6 0 42.7-19.1 42.7-42.7s-19.1-42.7-42.7-42.7h-128c-23.6 0-42.7 19.1-42.7 42.7s19.1 42.7 42.7 42.7zM938.7 469.3h-128c-23.6 0-42.7 19.1-42.7 42.7s19.1 42.7 42.7 42.7h128c23.6 0 42.7-19.1 42.7-42.7s-19.2-42.7-42.7-42.7zM938.7 725.3h-128c-23.6 0-42.7 19.1-42.7 42.7s19.1 42.7 42.7 42.7h128c23.6 0 42.7-19.1 42.7-42.7s-19.2-42.7-42.7-42.7zM405.3 469.3c94.1 0 170.7-76.6 170.7-170.7S499.4 128 405.3 128s-170.7 76.6-170.7 170.7 76.6 170.6 170.7 170.6z m0-256c47.1 0 85.3 38.3 85.3 85.3S452.4 384 405.3 384 320 345.7 320 298.7s38.3-85.4 85.3-85.4zM544 512H266.7c-100 0-181.3 88-181.3 196.3v102.4c0 23.6 19.1 42.7 42.7 42.7s42.7-19.1 42.7-42.7V708.3c0-61.2 43.1-110.9 96-110.9H544c52.9 0 96 49.8 96 110.9v102.4c0 23.6 19.1 42.7 42.7 42.7s42.7-19.1 42.7-42.7V708.3C725.3 600 644 512 544 512z" p-id="15990"></path>
    </g>
  </g>
</svg>