<?xml version="1.0" encoding="utf-8"?>
<svg version="1.1" xmlns:xlink="http://www.w3.org/1999/xlink" width="30px" height="30px" xmlns="http://www.w3.org/2000/svg">
  <defs>
    <path d="M 0 0  L 1024 0  L 1024 1024  L 0 1024  Z " fill-rule="evenodd" fill="black" id="path485" />
    <clipPath id="clip486">
      <use xlink:href="#path485" />
    </clipPath>
    <filter x="-50.00%" y="-50.00%" width="200.00%" height="200.00%" filterUnits="objectBoundingBox" id="filter487">
      <feColorMatrix type="matrix" values="0.7 0 0 0 0.75  0 0.7 0 0 0.75  0 0 0.7 0 0.75  0 0 0 1 0  " in="SourceGraphic" />
    </filter>
  </defs>
  <g transform="matrix(1 0 0 1 -35 -150 )">
    <g transform="matrix(0.029296875 0 0 0.029296875 35 150 )" clip-path="url(#clip486)" filter="url(#filter487)">
      <path d="M878.8 145c-38.8 0-70.3 31.5-70.3 70.3 0 13 3.5 25.1 9.6 35.5L618.6 531.5c-4.4-0.9-9-1.3-13.6-1.3-14.1 0-27.3 4.2-38.3 11.4l-139.5-89.7c0-0.6 0-1.2 0-1.8 0-38.8-31.5-70.3-70.3-70.3s-70.3 31.5-70.3 70.3c0 11 2.5 21.4 7 30.7L155 691.6c-3.6-0.6-7.4-0.9-11.2-0.9-38.8 0-70.3 31.5-70.3 70.3s31.5 70.3 70.3 70.3 70.3-31.5 70.3-70.3c0-13.9-4-26.8-11-37.7l135.2-205.5c5.9 1.6 12.2 2.5 18.6 2.5 17.1 0 32.7-6.1 44.9-16.2L535.5 590c-0.5 3.4-0.8 6.9-0.8 10.4 0 38.8 31.5 70.3 70.3 70.3s70.3-31.5 70.3-70.3c0-13-3.5-25.1-9.6-35.5l199.6-280.7c4.4 0.9 9 1.3 13.6 1.3 38.8 0 70.3-31.5 70.3-70.3S917.6 145 878.8 145z" p-id="2551"></path>
    </g>
  </g>
</svg>