<svg t="1593023944984" class="icon" viewBox="0 0 1024 1024" version="1.1" xmlns="http://www.w3.org/2000/svg" p-id="1773" width="200" height="200"><path d="M991.82891 479.917214a31.994481 31.994481 0 0 1 31.99448 31.994481A511.911695 511.911695 0 0 1 63.924973 759.868923L63.988962 799.862024a31.994481 31.994481 0 1 1-63.988962 0v-127.977924a31.994481 31.994481 0 0 1 31.994481-31.994481h127.977924a31.994481 31.994481 0 1 1 0 63.988962h-52.854883l2.687537 5.631029A447.922733 447.922733 0 0 0 959.834429 511.911695a31.994481 31.994481 0 0 1 31.994481-31.994481zM479.917214 319.94481a31.994481 31.994481 0 0 1 31.48257 26.235474L511.911695 351.93929V511.911695h159.972405a31.994481 31.994481 0 0 1 5.759007 63.47705L671.8841 575.900657h-191.966886a31.994481 31.994481 0 0 1-31.482569-26.235474L447.922733 543.906176v-191.966886a31.994481 31.994481 0 0 1 31.994481-31.99448zM511.911695 0a511.911695 511.911695 0 0 1 448.050711 264.018457L959.834429 223.961367a31.994481 31.994481 0 1 1 63.988961 0v127.977923a31.994481 31.994481 0 0 1-26.235474 31.48257L991.82891 383.933771h-127.977924a31.994481 31.994481 0 1 1 0-63.988961h52.854882A447.922733 447.922733 0 0 0 63.988962 511.911695a31.994481 31.994481 0 0 1-63.988962 0 511.911695 511.911695 0 0 1 511.911695-511.911695z" p-id="1774" fill="#ffffff"></path></svg>